<svg width="2088" height="1654" viewBox="0 0 2088 1654" fill="none" xmlns="http://www.w3.org/2000/svg">
<path d="M1495.5 1623.6C1486.2 1620.2 1460.9 1611.2 1432 1601C1404.7 1591.5 1346.9 1571 1341 1568.8C1338 1567.7 1324 1562.8 1310 1557.8C1296 1552.8 1277.5 1546.3 1269 1543.2C1260.5 1540.2 1250.6 1536.7 1247 1535.5C1243.4 1534.2 1219.6 1525.8 1194 1516.7C1168.4 1507.6 1112.6 1487.8 1070 1472.7C1027.4 1457.6 985.4 1442.7 976.8 1439.6C968.1 1436.5 953.9 1431.5 945.3 1428.4C936.6 1425.3 913.3 1417.1 893.5 1410C873.7 1403 855.7 1396.7 853.5 1396C846.6 1393.8 794.5 1375.4 703.5 1343C683.2 1335.7 663.4 1328.7 659.5 1327.3C655.7 1325.9 634.7 1318.5 613 1310.8C591.3 1303.1 567.4 1294.6 560 1292C496.4 1269.5 482.8 1264.6 478 1262.8C475 1261.7 464.4 1258 454.5 1254.5C444.6 1251 421.2 1242.7 402.5 1236C383.8 1229.3 361.1 1221.2 352 1218C342.9 1214.8 319.5 1206.5 300 1199.5C280.5 1192.5 260.2 1185.3 255 1183.5C240.4 1178.3 225 1172.2 222.3 1170.4C220.9 1169.6 219.2 1167.4 218.5 1165.6C217.4 1163.1 204 1092 191.9 1024.5C189 1008.2 177.6 946 171 910.5C167.6 892.4 164 872.8 163 867C160.6 853.9 154.1 818.8 140.5 745.5C134.7 714.2 127.9 677.7 125.5 664.5C121.1 640.3 109.2 576.4 99.8001 526.5C97.0001 511.7 94.5001 497.2 94.3001 494.4C93.4001 485.5 90.5001 488.5 145.4 442.1C154.8 434.1 168.4 422.7 175.5 416.5C190.8 403.5 210.6 386.6 232 368.5C240.4 361.4 262.9 342.2 281.9 326C301 309.8 326.9 287.7 339.5 277C352.1 266.3 371.9 249.4 383.5 239.5C395.1 229.6 414.9 212.7 427.5 202C466.8 168.5 562.9 86.4 592.8 60.7C617.7 39.4 618.3 39 623.8 39C628.4 39 635.7 41.4 691 61C700.6 64.3 711.4 68.2 715 69.5C721.1 71.8 753.5 83.2 808.5 102.7C821.7 107.3 835.4 112.2 839 113.5C846.1 116.1 876.3 126.8 916 140.8C930 145.8 955.7 154.8 973 161C990.3 167.1 1015.3 176 1028.5 180.6C1041.7 185.3 1055.4 190.2 1059 191.5C1062.6 192.8 1076.5 197.7 1090 202.5C1103.5 207.3 1117 212.1 1120 213.2C1123 214.3 1133.6 218.1 1143.5 221.5C1153.4 225 1171.9 231.5 1184.5 236C1197.2 240.5 1210.4 245.3 1214 246.5C1217.6 247.8 1237.2 254.8 1257.5 262C1277.9 269.2 1302.6 278 1312.5 281.5C1322.4 284.9 1340.6 291.4 1353 295.8C1365.4 300.2 1418 319 1470 337.5C1522 356 1567.4 372.2 1571 373.5C1574.6 374.9 1587.6 379.5 1600 383.9C1623.5 392.1 1690.8 416.1 1777.5 447C1848.5 472.4 1852.6 473.8 1878.5 482.9C1905.2 492.3 1909.8 494.4 1912.2 498.5C1913.1 500.2 1915.1 507.9 1916.4 515.5C1917.8 523.2 1919.6 533.1 1920.4 537.5C1921.2 541.9 1924.4 559.2 1927.4 576C1930.5 592.8 1933.5 608.8 1934 611.5C1934.6 614.3 1936.6 625.3 1938.5 636C1940.4 646.7 1943.4 662.9 1945.1 672C1946.8 681.1 1949 693.5 1950.1 699.5C1951.2 705.6 1953.6 718.9 1955.5 729.2C1957.4 739.6 1960.6 756.7 1962.5 767.2C1964.4 777.8 1966.6 789.9 1967.5 794C1968.3 798.1 1971.7 816.4 1975 834.5C1978.3 852.7 1981.9 872.2 1983 878C1985.3 890.7 1989.1 911.4 1992.5 929.3C1996.4 950.4 2003.6 988.9 2007.5 1010C2009.4 1020.7 2012.2 1035.4 2013.5 1042.5C2015.8 1054.7 2029.3 1127 2030.5 1133.5C2030.8 1135.2 2032.4 1143.9 2034 1152.8C2037.3 1170.6 2037.6 1175.4 2035.7 1178.6C2032.6 1183.9 2033 1183.6 1983.5 1225.5C1968.7 1238.1 1948.9 1254.9 1939.5 1262.9C1930.2 1270.9 1917.1 1282 1910.5 1287.6C1893.3 1302.2 1856.7 1333.3 1848.4 1340.4C1844.5 1343.8 1835.5 1351.4 1828.4 1357.5C1821.3 1363.5 1811.2 1372.1 1806 1376.5C1800.8 1381 1788.6 1391.3 1779 1399.5C1769.4 1407.7 1757.7 1417.7 1753 1421.6C1748.3 1425.6 1736 1436.2 1725.5 1445.1C1715.1 1454 1702.7 1464.5 1698 1468.6C1693.3 1472.6 1679.4 1484.5 1667 1495C1654.6 1505.6 1638.9 1519 1632.1 1524.9C1625.2 1530.7 1616.4 1538.2 1612.5 1541.5C1608.6 1544.8 1585.7 1564.4 1561.6 1585C1537.5 1605.6 1516.6 1623.2 1515.1 1624.1C1510.1 1627.3 1505.2 1627.2 1495.5 1623.6ZM1515.1 1580.3C1521.4 1574.9 1538.9 1559.9 1554 1547C1569.1 1534.1 1587.4 1518.6 1594.5 1512.5C1601.7 1506.4 1618.3 1492.2 1631.5 1480.9C1644.7 1469.6 1666 1451.4 1678.9 1440.5C1703.8 1419.3 1736 1391.9 1757.5 1373.5C1764.7 1367.4 1786 1349.2 1805 1333C1840 1303.2 1867.2 1280 1897 1254.5C1906.1 1246.8 1922.5 1232.8 1933.4 1223.5C1944.4 1214.1 1960.1 1200.7 1968.4 1193.6C1976.7 1186.6 1983.6 1180 1983.8 1179.1C1984.2 1176.6 1982.7 1175.7 1971 1171.7C1965.2 1169.7 1954.7 1166 1947.5 1163.4C1940.4 1160.9 1927.8 1156.4 1919.5 1153.5C1911.3 1150.6 1889 1142.7 1870 1136C1851 1129.3 1829.4 1121.6 1822 1119C1814.6 1116.4 1786.9 1106.6 1760.5 1097.2C1532.8 1016.7 1464.4 992.4 1405.2 970.9C1396.2 967.7 1388.4 965 1388 965C1386.9 965 1381.4 969.6 1343.5 1001.9C1326.5 1016.5 1301.7 1037.6 1288.5 1048.9C1275.3 1060.2 1253.9 1078.5 1241 1089.5C1228.1 1100.5 1203.6 1121.5 1186.5 1136C1169.5 1150.5 1143.4 1172.8 1128.5 1185.5C1113.7 1198.2 1089.4 1218.9 1074.6 1231.5C1037.8 1262.8 996.2 1298.4 968 1322.5C955.1 1333.5 935.8 1349.9 925.3 1359C914.7 1368 906 1376 906 1376.7C906 1378.9 909.8 1380.6 934 1389C946.9 1393.5 960.4 1398.2 964 1399.6C970.2 1401.9 1044.7 1428.3 1096 1446.5C1109.5 1451.2 1123.4 1456.2 1127 1457.5C1130.6 1458.8 1147.5 1464.8 1164.5 1470.8C1202.2 1484.2 1212.9 1488 1281 1512.2C1310.4 1522.7 1341.3 1533.6 1349.5 1536.5C1357.8 1539.4 1374.9 1545.4 1387.5 1549.9C1400.2 1554.5 1418.2 1560.8 1427.5 1564.1C1436.9 1567.4 1450.6 1572.3 1458 1575C1492.6 1587.5 1499.6 1589.9 1501.6 1589.9C1503 1590 1508.2 1586.2 1515.1 1580.3ZM846.7 1354.4C847 1353.5 844.7 1338.8 841.6 1321.7C838.4 1304.5 835 1285.9 834 1280.4C832 1269.1 830.3 1265.1 826.6 1262.7C825.2 1261.8 809.6 1255.8 791.8 1249.5C774 1243.1 756.6 1236.8 753 1235.5C743.8 1232.1 703.1 1217.4 672.5 1206.5C658.2 1201.4 638.2 1194.2 628 1190.5C603.7 1181.7 587.3 1175.8 572 1170.3C565.1 1167.9 551 1162.8 540.5 1159C508.8 1147.5 432.5 1120.2 416.5 1114.5C408.3 1111.6 395.9 1107.2 389 1104.7C352.3 1091.4 322 1080.6 318 1079.4C304.3 1075.3 293.8 1069.1 291.9 1064.3C290.9 1061.5 282 1018 271.5 963.5C267.9 944.8 263.6 922.8 262 914.5C258.7 897.2 251.7 860.9 245.9 830.5C243.7 819 240.8 803.9 239.4 797C235.6 777.1 210 643.3 208.5 635C205.7 619.6 193.8 557.2 192.5 550.6C191 543.5 188.7 539.9 184 537.5C178.5 534.7 136.9 520.8 135.5 521.4C133.4 522.2 133.6 524.3 137.1 542.5C138.7 551.3 141.2 564.6 142.5 572C143.9 579.4 147 596.5 149.5 610C152 623.5 156.5 648 159.6 664.5C162.6 681 167.1 705.3 169.6 718.5C172 731.7 174.7 746.3 175.6 751C176.4 755.7 179.1 770.3 181.6 783.5C184 796.7 187.4 814.7 189 823.5C192.3 841.7 203.6 902.6 208 926.5C209.6 935.3 213.2 954.9 216 970C218.8 985.1 222.4 1004.5 224 1013C225.6 1021.5 229.9 1044.7 233.5 1064.5C237.1 1084.3 240.9 1105 242 1110.5C243 1116 244.6 1124.8 245.6 1130C248.5 1146 247 1144.6 267.6 1151.9C277.5 1155.4 294.1 1161.3 304.5 1165C315 1168.8 337.7 1176.9 355 1183C372.3 1189.1 399.6 1198.8 415.5 1204.5C431.5 1210.2 458 1219.6 474.5 1225.5C491 1231.3 512.2 1238.8 521.5 1242.1C530.9 1245.5 543 1249.8 548.5 1251.7C554 1253.6 560.1 1255.8 562 1256.5C567.8 1258.7 616.2 1275.9 645 1286C654.1 1289.2 666.5 1293.6 672.5 1295.8C686.6 1300.9 703.9 1307.1 777 1333C809.7 1344.6 837.4 1354.5 838.5 1355C841.8 1356.4 846 1356.2 846.7 1354.4ZM895.1 1340.3C901.4 1334.9 920.5 1318.6 937.5 1304.1C954.6 1289.5 972.8 1274 978 1269.5C990.8 1258.5 1037.8 1218.4 1063 1197C1074.3 1187.4 1091.2 1173 1100.5 1165C1122.3 1146.4 1183.2 1094.4 1215.6 1066.9C1229.3 1055.1 1252.7 1035.2 1267.6 1022.5C1282.4 1009.9 1310 986.3 1329 970.2C1348 954 1364 940.1 1364.7 939.2C1365.6 937.8 1365.3 934.4 1363 922.5C1360.3 908.5 1347.9 841.6 1346 830.5C1345.5 827.8 1343.3 815.8 1341.1 804C1338.9 792.2 1334.8 770.4 1332.1 755.5C1329.3 740.7 1324.1 712.5 1320.5 693C1316.9 673.5 1311.9 646.7 1309.5 633.5C1307.1 620.3 1299.9 581.6 1293.6 547.5C1287.3 513.4 1279.8 473.1 1277 458C1274.2 442.9 1269.5 417.2 1266.5 401C1263.5 384.8 1258.9 359.5 1256.2 344.9C1253.5 330.2 1251 317.7 1250.6 317.1C1249.1 314.7 1245.9 316.3 1237.9 323.3C1233.3 327.3 1217.5 340.8 1202.8 353.3C1188.1 365.8 1175.8 376.5 1175.5 377C1175.2 377.5 1175.4 379.8 1175.9 382.2C1176.5 384.6 1180.4 405.6 1184.5 429C1188.7 452.4 1193.2 477.4 1194.5 484.5C1195.9 491.7 1197.4 500.2 1197.9 503.5C1198.5 506.8 1199.8 514.5 1200.9 520.5C1208.2 560.8 1212 581.6 1219 620.5C1223.4 644.7 1230.8 685.8 1235.5 711.7C1240.1 737.7 1244.6 762.7 1245.4 767.2C1246.2 771.8 1249.1 787.9 1251.9 803C1254.7 818.1 1259.9 846.9 1263.5 867C1267.1 887.1 1271.4 911.1 1273.1 920.4C1276.1 936.8 1276.1 937.3 1274.3 939C1273.3 940 1260.8 950.8 1246.5 963.1C1218.7 987.1 1191.8 1010.4 1164.6 1033.9C1155.3 1041.9 1145.6 1050.3 1143 1052.5C1140.4 1054.7 1135.4 1059 1131.9 1062.1C1124.9 1068.2 1098.6 1090.9 1047 1135.5C1028.6 1151.4 1007.4 1169.7 1000 1176.1C992.6 1182.6 976.6 1196.4 964.5 1206.8C952.4 1217.2 935 1232.2 925.9 1240.1C916.8 1248 900.5 1262.1 889.7 1271.5C878.9 1280.8 870 1289.1 870 1290C869.9 1293.6 879.4 1347.6 880.3 1348.8C880.8 1349.4 881.8 1350 882.5 1350C883.2 1350 888.9 1345.6 895.1 1340.3ZM875.1 1256.8C879.3 1253.3 894.8 1240.2 909.6 1227.5C924.4 1214.9 947.3 1195.4 960.5 1184.1C973.7 1172.8 996.2 1153.6 1010.5 1141.4C1038.8 1117.2 1085.9 1077.1 1126.5 1042.5C1140.7 1030.4 1157.5 1016 1163.9 1010.5C1170.4 1005 1190.4 987.9 1208.5 972.5C1226.7 957.1 1244 942.1 1247.1 939C1254.9 931.5 1255.6 928.4 1253.1 914.9C1249.9 897.8 1239.5 841.8 1233 806.5C1225.5 766 1212.4 695.5 1206.5 663.5C1205.1 655.8 1201.9 638.5 1199.4 625C1196.9 611.5 1193.8 594.4 1192.4 587C1191 579.6 1185.7 550.3 1180.4 522C1175.2 493.7 1169.8 464.4 1168.4 457C1163.8 432.3 1161.2 418.6 1159.4 408.7C1157.3 397.3 1156.2 395.1 1153.2 396.5C1152 397.1 1142.4 404.9 1131.8 414C1121.2 423 1098.6 442.4 1081.5 456.9C1064.5 471.5 1039.7 492.6 1026.4 503.9C1013.2 515.2 990.5 534.6 976 547C961.4 559.4 944.5 573.8 938.4 579C932.3 584.2 913.9 600 897.4 614C881 628 861.4 644.7 854 651.1C842.4 661 784.3 710.6 774 719.3C768.9 723.7 767 727 767 731.7C767 733.9 770.1 752.4 773.9 772.7C784.2 827.5 793.5 877.1 797.4 898.5C799.3 909 803.2 929.9 806 945C808.8 960.1 812 977.2 813 983C814 988.8 817.4 1007.2 820.5 1024C823.7 1040.8 826.9 1059.5 827.6 1065.5C829.2 1077.4 830.5 1082 832.5 1082C834.4 1082 836.1 1080.6 917.4 1011.1C930 1000.3 945.3 987.2 951.4 982C957.5 976.8 971.8 964.6 983 955C994.3 945.4 1008 933.7 1013.5 929C1051.4 896.9 1052 896.2 1052 888C1052 885.7 1050.4 875 1048.4 864.2C1040.2 818.7 1032.1 773.2 1028.5 753C1021.2 711.1 1020.8 709.5 1017.2 705.7C1015.7 704.1 1011.1 701.1 1007 699C1002.9 696.9 998.1 693.7 996.4 691.8C983.6 678.2 991.1 652.4 1010.7 642.4C1015.6 640 1017.6 639.5 1023.2 639.7C1037.7 640 1049.2 649.4 1053.6 664.6C1056.7 675.3 1054.5 683.3 1045.5 694C1043 697 1040.7 700.6 1040.3 701.9C1040 703.3 1042 717.1 1044.9 732.9C1047.8 748.6 1051.2 767.4 1052.5 774.5C1054.8 786.9 1060.6 818.3 1070.6 871.7C1075.1 896.3 1075.3 899.6 1072.1 903.4C1070.4 905.4 1019.5 949.2 920 1034.1C854.8 1089.7 837.2 1105 836.6 1106.5C835.6 1109.3 835.9 1112.1 838.9 1125.6C840.6 1132.8 842.6 1145.1 843.4 1152.9C844.8 1166.5 845.8 1170 848.4 1170C849.7 1170 858.6 1163.4 866.6 1156.4C898.6 1128.6 920.1 1109.9 957.5 1077.5C981.6 1056.6 1006.6 1035 1012.9 1029.5C1024.9 1019.1 1104.2 950.5 1109.5 946C1111.1 944.6 1114.5 941.7 1117 939.5C1119.5 937.2 1124.4 933 1128 930C1141.5 918.6 1158 903.8 1159.5 901.7C1161.7 898.6 1161.4 893.5 1157.9 875.5C1156.3 866.7 1154.5 857.3 1154 854.5C1153.5 851.8 1152 843.7 1150.6 836.5C1146.8 817.2 1138.1 769 1129.5 720.5C1122.9 683.3 1119.3 662.7 1108 595.5C1104.4 574.3 1102.4 569.7 1095 564.9C1093.1 563.7 1089.8 561.5 1087.7 560.1C1081.1 555.8 1073.1 541.7 1073 534.4C1073 527.6 1075.9 521.2 1082.1 514.5C1105.1 489.9 1134.9 501.9 1138.4 537C1139.3 546.2 1138.3 548.9 1132.6 552.7C1126.8 556.5 1125.4 558.4 1124.1 564.3C1123 568.9 1126 587.3 1146.6 701C1149.6 717.8 1152.9 736.5 1154 742.5C1157.9 764.1 1173.2 847.9 1177.6 872C1182.7 899.7 1183 906.4 1179.1 911.9C1177.8 913.7 1169.3 921.6 1160.1 929.4C1151 937.2 1130.9 954.4 1115.6 967.5C1100.2 980.7 1086.3 992.6 1084.6 994C1081.3 996.6 1068.8 1007.1 1068 1008C1067.5 1008.6 1051.3 1022.5 992.6 1072.5C946.4 1112 915 1138.8 912 1141.4C910.6 1142.6 900.3 1151.4 889 1160.9C877.7 1170.5 864.8 1181.7 860.3 1185.8C850.6 1194.5 850.5 1194.9 854.5 1210.2C857.7 1222.5 860.8 1239.3 862 1250.8C862.9 1259.9 864 1263 866.4 1263C867 1263 871 1260.2 875.1 1256.8ZM826 1237.7C826 1236.4 818.7 1196.5 806 1128.5C802.7 1110.9 798.5 1088 796.6 1077.5C794.7 1067.1 791.9 1052.2 790.5 1044.5C789.1 1036.8 785.9 1019.5 783.4 1006C780.9 992.5 776.8 970.7 774.4 957.5C771.9 944.3 767.5 920 764.4 903.5C761.4 887 758.3 870.1 757.5 866C756.1 858.5 754.7 850.7 743.1 787.5C733.2 733.9 734.2 738 730 733.9C726.8 730.8 721.6 728.7 688.9 717.1C668.3 709.8 632.2 696.9 608.5 688.5C584.9 680.1 555.2 669.5 542.5 665C529.9 660.6 516.4 655.8 512.5 654.4C503.8 651.3 472.3 640 440.5 628.7C427.3 624 411.4 618.3 405.2 616.1C391.4 611.1 389 610.9 389 614.8C389 617.7 392.3 636.1 413 747.5C414.6 756.3 419.4 782 423.5 804.5C438.2 884.5 438.7 887.1 440 890.6C442.1 896.1 446.2 900.2 452.4 903.1C455.8 904.6 472.5 910.9 489.5 916.9C506.6 922.9 542.3 935.5 568.8 944.9C595.4 954.3 618.6 962 620.4 962C622.4 962 626.1 960.4 630.5 957.7C634.4 955.3 639 952.8 640.8 952.1C652.4 947.4 670.4 955.2 677.5 968.1C680.2 972.9 680.5 974.4 680.5 982C680.5 989.1 680.1 991.4 677.9 996.1C669.8 1013.2 650.5 1020.2 634 1011.9C628.8 1009.3 625.2 1005.1 619 994.3C613.3 984.2 610.2 981.2 601.5 977.8C595.9 975.6 526.6 950.9 490.5 938.3C455.3 926 443.1 921.2 433.4 916C425 911.3 423.5 909.8 422.1 904.5C421.3 901.4 412.2 852.6 406.5 821C406.1 819.1 404.8 811.9 403.5 805C402.2 798.1 399.7 785.1 398.1 776C391.6 740.7 374.8 649.8 372.4 636.5C366.9 606.6 365.9 603.5 360 600.5C356.4 598.6 309 582 307.3 582C305.1 582 305.1 583.6 307.6 597.1C309 604.5 312.1 621.3 314.5 634.5C319.1 659.2 329.5 715.3 333 734C334 739.8 335.8 749.5 336.9 755.5C341.4 779.8 346.3 806.3 349 821C350.6 829.5 355.1 853.8 359 875C365.7 911.5 368.6 927.5 373 950.5C374 956 375.4 963.4 376 967C378.1 979.2 380.1 984.7 383.6 988.3C388.6 993.3 390.7 994.2 421.5 1004.9C432.5 1008.7 446.5 1013.6 452.5 1015.8C458.6 1018 468.2 1021.5 474 1023.5C479.8 1025.5 487.4 1028.2 491 1029.5C494.6 1030.8 511.7 1036.9 529 1043C546.3 1049.1 563 1055 566 1056.2C569 1057.3 579.8 1061.1 590 1064.6C600.2 1068.2 611.4 1072.2 615 1073.5C620.4 1075.5 659.6 1089.4 691.2 1100.5L699 1103.3L704 1100.6C706.7 1099.2 711.4 1096.8 714.2 1095.3C718.6 1093 720.7 1092.5 727 1092.5C736.1 1092.5 742.2 1095.1 749.2 1102.1C756.6 1109.5 758.5 1114 758.5 1124C758.4 1131.3 758.1 1133.1 755.8 1136.8C751.1 1144.7 744.3 1151.7 738.5 1154.5C733.4 1157.1 732.7 1157.1 725.7 1156.2C711.4 1154.3 703.2 1148.8 697.1 1137C694.7 1132.5 691.2 1127 689.4 1125C683.5 1118.5 687.9 1120.2 537.5 1066.5C507.3 1055.7 471 1042.8 457 1037.9C443 1032.9 428.6 1027.8 425 1026.5C421.4 1025.2 407.5 1020.2 394 1015.5C360.5 1003.7 363 1006.7 356.1 969C352 946.5 344.3 904.6 337.6 868.5C334.5 852 330.4 830 328.5 819.5C326.5 809.1 324.1 795.8 323 790C320.7 778.1 307.6 706.9 302.5 679C287.2 594.9 284.1 578.9 282.3 575.9C279.5 571.2 275.9 569.7 233.5 554.9C222.3 551 216.3 549.3 215.6 550C214.6 551 215.8 558.1 229.5 632C232.5 648.2 236.8 671.4 239 683.5C245.2 717.3 246.9 726.2 250 743C251.7 751.5 254.3 765.9 255.9 775C257.6 784.1 261.2 803.9 264 819C266.8 834.1 269.5 848.8 270 851.5C271.5 859.7 276.6 887.2 280.5 908C282.5 918.7 285 932.5 286.1 938.5C287.8 947.9 295.4 988.8 304.5 1037.4C305.9 1045.2 307.6 1051.4 308.7 1052.9C311.6 1056.7 317.4 1059.2 348.5 1070.1C364.5 1075.7 390.6 1084.9 406.5 1090.5C479.9 1116.5 520.8 1131 548 1140.7C564.2 1146.4 580.2 1152.1 583.5 1153.2C586.8 1154.3 593.6 1156.7 598.5 1158.5C603.5 1160.4 615.2 1164.6 624.5 1167.8C633.9 1171.1 655.7 1178.9 673 1185C690.3 1191.1 709 1197.7 714.5 1199.7C720 1201.6 728.1 1204.5 732.5 1206.1C736.9 1207.6 754 1213.7 770.5 1219.5C787 1225.4 805.9 1232.1 812.5 1234.5C826.1 1239.5 826 1239.5 826 1237.7ZM1996.4 1141.8C1997.6 1139.9 1996.9 1135.4 1988 1087.5C1977.6 1031.6 1970.8 995.2 1969.4 987.5C1967.3 975.8 1952.5 895.9 1948 871.5C1945.8 860 1942.5 842 1940.6 831.5C1938.7 821.1 1934.6 799.2 1931.6 783C1925.2 748.4 1922.5 734 1909 661C1903.5 631 1898.1 601.8 1897 596C1888.1 548.3 1886 536.7 1885 531C1884.4 527.4 1883.7 523.5 1883.5 522.4C1883 520.1 1880.2 518.8 1863.5 513C1849.1 507.9 1811.1 494.4 1762 477C1737 468.1 1712.2 459.3 1707 457.5C1701.8 455.7 1691.9 452.2 1685 449.7C1678.1 447.2 1664.6 442.4 1655 439C1645.4 435.7 1635 432 1632 430.8C1629 429.7 1617.5 425.7 1606.5 421.9C1595.5 418 1584.7 414.2 1582.5 413.3C1580.3 412.5 1571.1 409.2 1562 406C1552.9 402.8 1525.7 393.1 1501.5 384.5C1477.3 375.9 1448.7 365.8 1438 362C1427.3 358.2 1412.2 352.9 1404.5 350.2C1396.8 347.4 1379 341.2 1365 336.2C1351 331.2 1327.9 323.1 1313.8 318.1C1299.6 313.1 1287.6 309 1287.1 309C1286.5 309 1285.6 309.9 1285 311C1284 312.9 1285.5 321.6 1305.5 429.5C1308 442.7 1310.2 454.9 1310.5 456.5C1310.8 458.2 1316.7 489.9 1323.6 527C1341.2 621.6 1348.9 663.6 1354.5 694C1355.2 698.1 1360 723.6 1365 750.5C1370 777.5 1375.9 809 1378 820.5C1398 929.2 1398.5 931.9 1399.6 932.9C1400.4 933.7 1422.1 941.4 1500.5 969C1506.6 971.1 1517.8 975.1 1525.5 977.8C1533.2 980.5 1557.5 989.2 1579.5 997C1601.5 1004.8 1632.6 1015.8 1648.5 1021.5C1664.5 1027.2 1687.9 1035.5 1700.5 1040C1713.2 1044.5 1741.1 1054.4 1762.5 1062C1784 1069.6 1815 1080.6 1831.5 1086.5C1848 1092.3 1865.1 1098.4 1869.5 1100C1877.4 1102.9 1942.6 1126 1967.5 1134.7C1974.7 1137.2 1983.2 1140.3 1986.5 1141.6C1993.2 1144.3 1994.8 1144.3 1996.4 1141.8ZM747.6 696.7C748.8 696 766.3 681.3 786.6 664C806.9 646.7 833.1 624.2 845 614.1C888 577.5 905.1 562.9 935.5 536.9C952.6 522.4 978.1 500.6 992.3 488.5C1006.4 476.5 1018 466 1018 465.3C1018 463.5 1016.6 462.9 996 455.7C985.8 452.1 968.5 445.9 957.5 442C946.5 438 935.7 434.2 933.5 433.5C931.3 432.7 917.4 427.8 902.5 422.5C887.7 417.2 866.5 409.8 855.5 405.9C844.5 402.1 834.5 398.5 833.2 398C831.9 397.4 813.5 390.8 792.2 383.2C756.5 370.6 753 369.5 746.5 369.5C737.4 369.5 737.3 369.6 700 401.5C683.9 415.3 664.1 432.1 656.1 439C648.1 445.9 631.3 460.2 618.9 470.8L596.2 490.1L596.4 502.8C596.5 514.1 596.3 516 594.3 519.6C589.3 529 577.1 536.2 566.4 536.2C561.3 536.2 558.9 535.5 552.9 532.5C541.1 526.6 535.4 518.7 534.3 507C533.1 494.3 537.9 484.6 549.2 477L555.5 472.8L569 473.4L582.5 474L587.7 470.6C590.6 468.7 601.2 460.2 611.2 451.7C698 378.2 735.9 346.4 738.1 345.3C740.4 344.1 742 344.4 753.1 348.4C771.2 354.8 811.1 369 837 378.2C849.4 382.7 861.8 387.1 864.5 388C874.4 391.4 920.9 408 940 414.8C950.7 418.7 967.8 424.8 978 428.3C988.2 431.9 999 435.7 1002 436.8C1035 448.8 1036.3 449.2 1038.7 448.1C1040.9 447.1 1073.8 419.7 1081.9 412.1C1085.3 409 1085.3 408.9 1083.4 407.1C1082.4 406.1 1068 400.6 1051.5 394.7C1035 388.9 999.2 376.2 972 366.5C944.8 356.8 908.1 343.8 890.5 337.5C872.9 331.2 842.5 320.4 823 313.5C803.5 306.5 783.2 299.3 778 297.5C768.4 294.2 760.2 291.2 723.5 278C707.2 272.1 702.3 270.8 697.3 270.7C691.3 270.6 691.1 270.7 684 276.4C680 279.6 671.5 286.8 665 292.4C658.6 297.9 643.2 311.1 630.9 321.6C618.6 332.1 589.8 356.6 567 376.1C544.2 395.6 523.9 412.9 521.9 414.5C496.8 435.4 437.8 486.6 436.9 488.3C436.1 489.6 435.7 494 435.9 499.3C436.2 510.8 434.2 516.8 428.3 522.7C421.6 529.5 414.3 532.4 404.7 532.3C398.1 532.2 395.9 531.7 390.5 529.1C377.8 522.8 371.1 508.7 374 494.4C376.3 483.5 380.9 477.2 390.2 472.4C397.9 468.5 402.9 467.8 414.5 469.1C424.2 470.3 425 470.2 428.3 468.3C430.2 467.1 444.5 455.3 460.2 441.9C475.8 428.5 501.8 406.3 518 392.5C534.1 378.8 552.1 363.4 557.9 358.5C621.6 304.1 684.1 251.1 686.4 249.7C690.1 247.2 697.1 247.3 704.1 249.9C707 251 719.6 255.5 732 259.9C756.2 268.4 836.1 296.8 913.5 324.2C1004.8 356.6 1057.6 375.3 1078.4 382.6C1089.9 386.7 1100.7 390 1102.4 390C1106.2 390 1128.9 373.3 1145.3 358.6C1157.6 347.4 1159 345.6 1156 344C1154.8 343.4 1137.6 337.1 1117.7 330C1097.8 323 1068.2 312.5 1052 306.7C1023.8 296.7 1003.7 289.5 919 259.5C833.4 229.2 748.7 199.1 701.9 182.4C688.9 177.8 676.7 174 674.8 174C671.7 174 668.6 176.3 648.9 193.1C636.6 203.7 620.9 217.1 614 222.9C583.5 248.9 551.2 276.6 535.5 290C526.2 298 497.4 322.6 471.5 344.6C445.7 366.6 416.4 391.6 406.4 400.1C396.5 408.6 375.2 426.8 359.1 440.5C284.5 504 258.5 526.6 258.7 527.5C259 528.5 267.8 531.8 332 554.5C353.2 562 376.8 570.4 384.5 573.2C410.1 582.3 414.4 583.8 430.5 589.5C439.3 592.6 449.4 596.2 453 597.5C456.6 598.8 466.7 602.4 475.5 605.5C484.3 608.6 501.4 614.7 513.5 619C525.6 623.3 545.9 630.5 558.5 635C571.2 639.4 584 644 587 645.1C590 646.3 600.2 649.9 609.5 653.2C640.2 664 702.2 686.1 718.5 692C735.2 698 743.1 699.3 747.6 696.7ZM253 505.9C262.1 498.1 280.9 482.1 294.9 470.1C308.9 458.2 325.1 444.4 330.9 439.4C348.9 424 401.8 378.8 438 348C457 331.8 486.2 306.9 503 292.5C519.8 278.2 544.3 257.2 557.5 246C586.2 221.5 631.1 183.2 650.4 166.7C658 160.2 665.4 154.4 666.8 153.9C668.6 153.2 671 153.3 674.5 154.1C680.1 155.4 739.2 175.6 808.5 199.8C832.4 208.2 942.9 246.5 982 260C994.4 264.3 1026.8 275.5 1054 285C1141.3 315.4 1152.3 319.1 1164.7 323.2L1176.8 327.2L1182.2 324.7C1189 321.4 1223.4 292.2 1223.8 289.3C1224.2 286.5 1223.7 286.3 1202.9 279C1193.3 275.6 1180.8 271.1 1175 269C1169.2 266.9 1149 259.7 1130 253C1111 246.3 1093 240 1090 238.8C1087 237.7 1076.9 234.1 1067.5 230.8C1058.2 227.6 1048 224 1045 222.8C1042 221.7 1031.9 218.1 1022.5 214.8C1013.2 211.5 985.9 201.8 962 193.3C938.1 184.7 914.2 176.3 909 174.5C903.8 172.7 886.7 166.6 871 161C855.3 155.4 831.9 147.1 819 142.5C806.1 137.9 758.6 121.1 713.6 105.1C668.6 89.1 630.7 76 629.4 76C626.9 76 624.7 77.8 584.4 112.1C570.7 123.9 545.9 145 529.5 159C513.1 173 491.7 191.2 482.1 199.4C472.4 207.7 450.6 226.3 433.5 240.9C416.5 255.5 396.7 272.4 389.5 278.5C382.4 284.6 367.1 297.6 355.5 307.5C323.1 335.2 308.8 347.3 304.9 350.5C303 352.2 290.3 363 276.9 374.5C255.6 392.7 201.2 439.2 189.5 449.1C165.5 469.6 150.3 482.7 149.3 484C147.3 486.5 147.8 488.9 150.8 490.4C152.3 491.1 165.9 496.1 181 501.5C196.1 506.8 213.9 513.1 220.5 515.5C227.1 518 233.4 519.9 234.5 520C235.7 520 243.5 514.1 253 505.9Z" fill="#292F79"/>
<path d="M1438.5 1519.9C1411 1510.1 1381.3 1499.5 1372.5 1496.4C1363.7 1493.3 1351.1 1488.9 1344.5 1486.5C1337.9 1484.1 1318.6 1477.2 1301.5 1471.2C1263.6 1457.7 1232.3 1446.6 1202.3 1435.9C1189.7 1431.4 1176.4 1426.7 1172.5 1425.3C1165.3 1422.8 1102.6 1400.5 1065.5 1387.3C1054 1383.2 1036.2 1376.9 1026 1373.4C1015.8 1369.8 1006.6 1366.3 1005.4 1365.5C1002.1 1363.4 1000.5 1358.6 1002 1355.1C1002.7 1353.3 1011.4 1345.2 1024.3 1334.2C1043.6 1317.9 1100.9 1269 1160.5 1218.1C1197.2 1186.7 1247.7 1143.7 1285.5 1111.4C1322.6 1079.9 1369.6 1039.6 1384.3 1027.1C1393.8 1018.9 1397.4 1016.8 1400.5 1017.7C1402.1 1018.1 1484.1 1047.1 1554.5 1072.2C1562.2 1075 1572.1 1078.5 1576.5 1080C1600.8 1088.5 1735.6 1136.4 1769.5 1148.5C1776.7 1151.1 1796.9 1158.3 1814.5 1164.5C1891.1 1191.6 1885.7 1189.5 1887.5 1193C1889.7 1197.3 1889.3 1200.4 1886.2 1203.6C1884.7 1205.2 1873.1 1215.3 1860.5 1226.1C1830.9 1251.2 1758.9 1312.7 1714.6 1350.6C1698.9 1364 1665 1392.9 1656.6 1399.9C1651.6 1404.1 1645.6 1409.3 1643.1 1411.6C1640.6 1413.8 1630.9 1422.1 1621.5 1430C1595.3 1452.3 1559.7 1482.7 1534 1504.7C1494.9 1538.2 1495.1 1538 1491 1537.9C1489.6 1537.9 1466 1529.8 1438.5 1519.9ZM1506.1 1495.3C1520.9 1482.9 1567.4 1443.2 1602 1413.5C1613.4 1403.8 1665.6 1359.2 1693.4 1335.5C1704.4 1326.1 1732.3 1302.3 1755.4 1282.6C1778.6 1262.8 1801.3 1243.4 1806 1239.4C1810.7 1235.4 1819.9 1227.6 1826.5 1222C1844.5 1206.7 1846.1 1205 1845 1202.9C1844.4 1201.9 1843 1200.8 1841.8 1200.5C1840.5 1200.1 1831.9 1197.1 1822.5 1193.8C1813.2 1190.5 1798.8 1185.4 1790.5 1182.5C1782.3 1179.6 1758.4 1171.1 1737.5 1163.7C1716.6 1156.3 1670.7 1140 1635.5 1127.5C1600.3 1115 1564.1 1102.2 1555 1099C1545.9 1095.8 1525.1 1088.4 1508.6 1082.5C1492.2 1076.7 1477.2 1071.3 1475.1 1070.6C1473.1 1069.9 1460.7 1065.4 1447.5 1060.7C1434.3 1056 1419.1 1050.5 1413.7 1048.6C1408.3 1046.6 1403.4 1045 1402.7 1045C1402 1045 1395.9 1049.8 1389 1055.6C1374.6 1067.9 1328.9 1106.9 1309 1124C1301.6 1130.3 1294.4 1136.5 1293 1137.6C1287.1 1142.6 1253.9 1171 1235 1187.1C1223.7 1196.7 1199.2 1217.7 1180.5 1233.6C1161.8 1249.5 1140.9 1267.3 1134 1273.2C1091.4 1309.6 1067 1330.4 1056.7 1339.2C1048 1346.7 1045 1349.8 1045.2 1351.3C1045.4 1352.9 1048.5 1354.4 1060.5 1358.6C1078.1 1364.9 1097.8 1371.9 1110.5 1376.5C1115.5 1378.3 1124.7 1381.6 1131 1383.8C1141 1387.4 1210.3 1412 1336.5 1457C1356.3 1464 1382.9 1473.5 1395.5 1478C1429.8 1490.1 1473.8 1505.9 1479.5 1508C1482.3 1509.1 1485.4 1509.9 1486.6 1509.9C1487.9 1510 1495.4 1504.4 1506.1 1495.3Z" fill="#292F79"/>
<path d="M1936 1081.8C1933.7 1080.9 1885.3 1063.6 1811.5 1037.5C1793.9 1031.3 1769.2 1022.5 1756.5 1018C1743.9 1013.5 1730.6 1008.8 1727 1007.5C1723.4 1006.3 1712.6 1002.4 1703 999C1693.4 995.7 1683 992 1680 990.8C1677 989.7 1665.5 985.7 1654.5 981.9C1643.5 978 1632.3 974 1629.5 973C1626.8 971.9 1604 963.8 1579 954.9C1554 946.1 1527.2 936.6 1519.5 933.8C1501.4 927.4 1469.2 916 1452 910C1441.4 906.3 1438.2 904.8 1437.3 902.9C1436.3 900.9 1432.7 882.2 1426.4 847C1425.2 840.1 1420.5 814.6 1406.5 739C1400.8 708.4 1384 617.3 1371.9 551.5C1368 530.6 1364 508.8 1363 503C1362 497.2 1359.6 484.2 1357.6 474C1355.7 463.8 1353.6 452.8 1353 449.5C1352.4 446.2 1349.5 430.2 1346.5 414C1339.9 377.9 1340.1 379.6 1342 379.3C1342.8 379.1 1355 383.1 1369 388.1C1391.2 396 1452.5 417.9 1495.5 433.2C1503.2 435.9 1513.8 439.7 1519 441.5C1524.2 443.3 1534.8 447.1 1542.5 449.8C1558.3 455.4 1587.8 465.9 1640.5 484.5C1660.3 491.5 1683.3 499.6 1691.5 502.5C1699.8 505.4 1728.3 515.5 1755 525C1781.7 534.4 1811.6 545 1821.5 548.5C1846.1 557.1 1844.7 556.5 1845.4 559.7C1846.1 562.8 1853.1 600.7 1856 617C1857 622.8 1860.4 641.2 1863.5 658C1866.6 674.8 1869.5 690.8 1870 693.5C1870.5 696.3 1872.7 708.4 1875 720.5C1877.3 732.6 1881.3 754.4 1884 769C1886.7 783.6 1891.9 811.7 1895.6 831.5C1899.2 851.3 1902.8 870.9 1903.5 875C1904.3 879.1 1907.6 897.1 1910.9 915C1914.2 932.9 1919 958.8 1921.5 972.5C1926.4 999.3 1935.4 1048 1939.6 1070.6C1941.2 1079.1 1941.1 1083.1 1939.3 1082.9C1938.9 1082.9 1937.4 1082.4 1936 1081.8Z" fill="#292F79"/>
</svg>
